<svg width="248" height="34" viewBox="0 0 248 34" fill="none" xmlns="http://www.w3.org/2000/svg">
<rect x="33" width="34" height="34" rx="3" fill="#F2F2F2"/>
<path fill-rule="evenodd" clip-rule="evenodd" d="M56 13.1599C55.9975 13.3501 55.9209 13.5318 55.7864 13.6663C55.6519 13.8008 55.4702 13.8775 55.28 13.8799H44.72C44.5298 13.8775 44.3481 13.8008 44.2136 13.6663C44.0791 13.5318 44.0025 13.3501 44 13.1599C44.0025 12.9698 44.0791 12.7881 44.2136 12.6536C44.3481 12.5191 44.5298 12.4424 44.72 12.4399H55.28C55.4702 12.4424 55.6519 12.5191 55.7864 12.6536C55.9209 12.7881 55.9975 12.9698 56 13.1599Z" fill="black"/>
<path fill-rule="evenodd" clip-rule="evenodd" d="M56 17C55.9975 17.1902 55.9209 17.3719 55.7864 17.5064C55.6519 17.6409 55.4702 17.7175 55.28 17.72H44.72C44.5298 17.7175 44.3481 17.6409 44.2136 17.5064C44.0791 17.3719 44.0025 17.1902 44 17C44.0025 16.8098 44.0791 16.6282 44.2136 16.4937C44.3481 16.3592 44.5298 16.2825 44.72 16.28H55.28C55.4702 16.2825 55.6519 16.3592 55.7864 16.4937C55.9209 16.6282 55.9975 16.8098 56 17Z" fill="black"/>
<path fill-rule="evenodd" clip-rule="evenodd" d="M56 20.8399C55.9975 21.0301 55.9209 21.2117 55.7864 21.3462C55.6519 21.4807 55.4702 21.5574 55.28 21.5599H44.72C44.5298 21.5574 44.3481 21.4807 44.2136 21.3462C44.0791 21.2117 44.0025 21.0301 44 20.8399C44.0025 20.6497 44.0791 20.468 44.2136 20.3335C44.3481 20.199 44.5298 20.1224 44.72 20.1199H55.28C55.4702 20.1224 55.6519 20.199 55.7864 20.3335C55.9209 20.468 55.9975 20.6497 56 20.8399Z" fill="black"/>
<rect x="77" width="34" height="34" rx="3" fill="#F2F2F2"/>
<path fill-rule="evenodd" clip-rule="evenodd" d="M92.0799 11C92.27 11.0025 92.4517 11.0791 92.5862 11.2136C92.7207 11.3481 92.7974 11.5298 92.7999 11.72V22.28C92.7974 22.4702 92.7207 22.6519 92.5862 22.7864C92.4517 22.9209 92.27 22.9975 92.0799 23C91.8897 22.9975 91.708 22.9209 91.5735 22.7864C91.439 22.6519 91.3623 22.4702 91.3599 22.28V11.72C91.3623 11.5298 91.439 11.3481 91.5735 11.2136C91.708 11.0791 91.8897 11.0025 92.0799 11Z" fill="black"/>
<path fill-rule="evenodd" clip-rule="evenodd" d="M95.9197 11C96.1099 11.0025 96.2916 11.0791 96.4261 11.2136C96.5606 11.3481 96.6372 11.5298 96.6397 11.72V22.28C96.6372 22.4702 96.5606 22.6519 96.4261 22.7864C96.2916 22.9209 96.1099 22.9975 95.9197 23C95.7295 22.9975 95.5478 22.9209 95.4133 22.7864C95.2788 22.6519 95.2022 22.4702 95.1997 22.28V11.72C95.2022 11.5298 95.2788 11.3481 95.4133 11.2136C95.5478 11.0791 95.7295 11.0025 95.9197 11Z" fill="black"/>
<rect x="121" width="34" height="34" rx="3" fill="#F2F2F2"/>
<path fill-rule="evenodd" clip-rule="evenodd" d="M134.16 11C134.35 11.0025 134.532 11.0791 134.666 11.2136C134.801 11.3481 134.877 11.5298 134.88 11.72V22.28C134.877 22.4702 134.801 22.6519 134.666 22.7864C134.532 22.9209 134.35 22.9975 134.16 23C133.97 22.9975 133.788 22.9209 133.654 22.7864C133.519 22.6519 133.442 22.4702 133.44 22.28V11.72C133.442 11.5298 133.519 11.3481 133.654 11.2136C133.788 11.0791 133.97 11.0025 134.16 11Z" fill="black"/>
<path fill-rule="evenodd" clip-rule="evenodd" d="M138 11C138.19 11.0025 138.372 11.0791 138.506 11.2136C138.641 11.3481 138.717 11.5298 138.72 11.72V22.28C138.717 22.4702 138.641 22.6519 138.506 22.7864C138.372 22.9209 138.19 22.9975 138 23C137.81 22.9975 137.628 22.9209 137.493 22.7864C137.359 22.6519 137.282 22.4702 137.28 22.28V11.72C137.282 11.5298 137.359 11.3481 137.493 11.2136C137.628 11.0791 137.81 11.0025 138 11Z" fill="black"/>
<path fill-rule="evenodd" clip-rule="evenodd" d="M141.84 11C142.03 11.0025 142.212 11.0791 142.346 11.2136C142.481 11.3481 142.558 11.5298 142.56 11.72V22.28C142.558 22.4702 142.481 22.6519 142.346 22.7864C142.212 22.9209 142.03 22.9975 141.84 23C141.65 22.9975 141.468 22.9209 141.334 22.7864C141.199 22.6519 141.123 22.4702 141.12 22.28V11.72C141.123 11.5298 141.199 11.3481 141.334 11.2136C141.468 11.0791 141.65 11.0025 141.84 11Z" fill="black"/>
<rect x="165" width="34" height="34" rx="3" fill="#F2F2F2"/>
<g clip-path="url(#clip0_3_2664)">
<path fill-rule="evenodd" clip-rule="evenodd" d="M176.667 11.4443C176.843 11.4466 177.011 11.5176 177.136 11.6421C177.26 11.7667 177.331 11.9349 177.333 12.111V21.8888C177.331 22.0649 177.26 22.2331 177.136 22.3576C177.011 22.4822 176.843 22.5531 176.667 22.5554C176.491 22.5531 176.322 22.4822 176.198 22.3576C176.073 22.2331 176.002 22.0649 176 21.8888V12.111C176.002 11.9349 176.073 11.7667 176.198 11.6421C176.322 11.5176 176.491 11.4466 176.667 11.4443Z" fill="black"/>
<path fill-rule="evenodd" clip-rule="evenodd" d="M180.222 11.4443C180.398 11.4466 180.567 11.5176 180.691 11.6421C180.816 11.7667 180.887 11.9349 180.889 12.111V21.8888C180.887 22.0649 180.816 22.2331 180.691 22.3576C180.567 22.4822 180.398 22.5531 180.222 22.5554C180.046 22.5531 179.878 22.4822 179.753 22.3576C179.629 22.2331 179.558 22.0649 179.556 21.8888V12.111C179.558 11.9349 179.629 11.7667 179.753 11.6421C179.878 11.5176 180.046 11.4466 180.222 11.4443Z" fill="black"/>
<path fill-rule="evenodd" clip-rule="evenodd" d="M183.778 11.4443C183.954 11.4466 184.122 11.5176 184.247 11.6421C184.371 11.7667 184.442 11.9349 184.445 12.111V21.8888C184.442 22.0649 184.371 22.2331 184.247 22.3576C184.122 22.4822 183.954 22.5531 183.778 22.5554C183.602 22.5531 183.434 22.4822 183.309 22.3576C183.185 22.2331 183.114 22.0649 183.111 21.8888V12.111C183.114 11.9349 183.185 11.7667 183.309 11.6421C183.434 11.5176 183.602 11.4466 183.778 11.4443Z" fill="black"/>
<path fill-rule="evenodd" clip-rule="evenodd" d="M187.333 11.4443C187.509 11.4466 187.678 11.5176 187.802 11.6421C187.927 11.7667 187.998 11.9349 188 12.111V21.8888C187.998 22.0649 187.927 22.2331 187.802 22.3576C187.678 22.4822 187.509 22.5531 187.333 22.5554C187.157 22.5531 186.989 22.4822 186.864 22.3576C186.74 22.2331 186.669 22.0649 186.667 21.8888V12.111C186.669 11.9349 186.74 11.7667 186.864 11.6421C186.989 11.5176 187.157 11.4466 187.333 11.4443Z" fill="black"/>
</g>
<rect x="209" width="34" height="34" rx="3" fill="#F2F2F2"/>
<path fill-rule="evenodd" clip-rule="evenodd" d="M220.514 12.7144C220.65 12.7161 220.78 12.7709 220.876 12.867C220.972 12.963 221.027 13.0928 221.029 13.2286V20.7715C221.027 20.9073 220.972 21.0371 220.876 21.1332C220.78 21.2293 220.65 21.284 220.514 21.2858C220.378 21.284 220.249 21.2293 220.153 21.1332C220.057 21.0371 220.002 20.9073 220 20.7715V13.2286C220.002 13.0928 220.057 12.963 220.153 12.867C220.249 12.7709 220.378 12.7161 220.514 12.7144Z" fill="black"/>
<path fill-rule="evenodd" clip-rule="evenodd" d="M223.257 12.7144C223.393 12.7161 223.523 12.7709 223.619 12.867C223.715 12.963 223.769 13.0928 223.771 13.2286V20.7715C223.769 20.9073 223.715 21.0371 223.619 21.1332C223.523 21.2293 223.393 21.284 223.257 21.2858C223.121 21.284 222.991 21.2293 222.895 21.1332C222.799 21.0371 222.744 20.9073 222.743 20.7715V13.2286C222.744 13.0928 222.799 12.963 222.895 12.867C222.991 12.7709 223.121 12.7161 223.257 12.7144Z" fill="black"/>
<path fill-rule="evenodd" clip-rule="evenodd" d="M226 12.7144C226.136 12.7161 226.266 12.7709 226.362 12.867C226.458 12.963 226.513 13.0928 226.514 13.2286V20.7715C226.513 20.9073 226.458 21.0371 226.362 21.1332C226.266 21.2293 226.136 21.284 226 21.2858C225.864 21.284 225.734 21.2293 225.638 21.1332C225.542 21.0371 225.488 20.9073 225.486 20.7715V13.2286C225.488 13.0928 225.542 12.963 225.638 12.867C225.734 12.7709 225.864 12.7161 226 12.7144Z" fill="black"/>
<path fill-rule="evenodd" clip-rule="evenodd" d="M228.743 12.7144C228.879 12.7161 229.008 12.7709 229.104 12.867C229.201 12.963 229.255 13.0928 229.257 13.2286V20.7715C229.255 20.9073 229.201 21.0371 229.104 21.1332C229.008 21.2293 228.879 21.284 228.743 21.2858C228.607 21.284 228.477 21.2293 228.381 21.1332C228.285 21.0371 228.23 20.9073 228.229 20.7715V13.2286C228.23 13.0928 228.285 12.963 228.381 12.867C228.477 12.7709 228.607 12.7161 228.743 12.7144Z" fill="black"/>
<path fill-rule="evenodd" clip-rule="evenodd" d="M231.485 12.7144C231.621 12.7161 231.751 12.7709 231.847 12.867C231.943 12.963 231.998 13.0928 232 13.2286V20.7715C231.998 20.9073 231.943 21.0371 231.847 21.1332C231.751 21.2293 231.621 21.284 231.485 21.2858C231.35 21.284 231.22 21.2293 231.124 21.1332C231.028 21.0371 230.973 20.9073 230.971 20.7715V13.2286C230.973 13.0928 231.028 12.963 231.124 12.867C231.22 12.7709 231.35 12.7161 231.485 12.7144Z" fill="black"/>
<defs>
<clipPath id="clip0_3_2664">
<rect width="12" height="12" fill="white" transform="translate(176 11)"/>
</clipPath>
</defs>
</svg>
